# Blender v2.93.4 OBJ File: 'platform.blend'
# www.blender.org
mtllib obstacle.mtl
o Cube_Cube.001
v 0.707107 0.000000 -0.500000
v 0.000000 0.707107 -0.500000
v 0.707107 0.000000 0.500000
v 0.000000 0.707107 0.500000
v -0.707107 0.000000 -0.500000
v -0.707107 0.000000 0.500000
vt 0.645379 0.527103
vt 0.665821 0.547793
vt 0.665821 0.547793
vt 0.645379 0.527103
vt 0.649204 0.492258
vt 0.669646 0.512947
vt 0.690088 0.492258
vt 0.690088 0.492258
vt 0.669646 0.512947
vt 0.649204 0.492258
vt 0.686263 0.527103
vt 0.686263 0.527103
vn 0.7071 0.7071 0.0000
vn 0.0000 0.0000 1.0000
vn 0.0000 0.0000 -1.0000
vn -0.7071 0.7071 0.0000
vn 0.0000 -1.0000 0.0000
usemtl universal
s off
f 1/1/1 2/2/1 4/3/1 3/4/1
f 3/5/2 4/6/2 6/7/2
f 5/8/3 2/9/3 1/10/3
f 6/11/4 4/3/4 2/2/4 5/12/4
f 3/5/5 6/7/5 5/8/5 1/10/5
