# Blender v2.93.4 OBJ File: 'panorama.blend'
# www.blender.org
mtllib panorama.mtl
o Cylinder
v 0.000000 -5.500000 15.000000
v 0.000000 9.500000 15.000000
v -1.957893 -5.500000 14.871674
v -1.957893 9.500000 14.871674
v -3.882286 -5.500000 14.488887
v -3.882286 9.500000 14.488887
v -5.740252 -5.500000 13.858192
v -5.740252 9.500000 13.858192
v -7.500000 -5.500000 12.990380
v -7.500000 9.500000 12.990380
v -9.131421 -5.500000 11.900299
v -9.131421 9.500000 11.900299
v -10.606602 -5.500000 10.606602
v -10.606602 9.500000 10.606602
v -11.900299 -5.500000 9.131421
v -11.900299 9.500000 9.131421
v -12.990381 -5.500000 7.499999
v -12.990381 9.500000 7.499999
v -13.858192 -5.500000 5.740252
v -13.858192 9.500000 5.740252
v -14.488887 -5.500000 3.882286
v -14.488887 9.500000 3.882286
v -14.871672 -5.500000 1.957894
v -14.871672 9.500000 1.957894
v -15.000000 -5.500000 -0.000001
v -15.000000 9.500000 -0.000001
v -14.871674 -5.500000 -1.957893
v -14.871674 9.500000 -1.957893
v -14.488887 -5.500000 -3.882286
v -14.488887 9.500000 -3.882286
v -13.858192 -5.500000 -5.740251
v -13.858192 9.500000 -5.740251
v -12.990380 -5.500000 -7.500001
v -12.990380 9.500000 -7.500001
v -11.900299 -5.500000 -9.131421
v -11.900299 9.500000 -9.131421
v -10.606602 -5.500000 -10.606602
v -10.606602 9.500000 -10.606602
v -9.131421 -5.500000 -11.900299
v -9.131421 9.500000 -11.900299
v -7.500001 -5.500000 -12.990380
v -7.500001 9.500000 -12.990380
v -5.740252 -5.500000 -13.858192
v -5.740252 9.500000 -13.858192
v -3.882287 -5.500000 -14.488887
v -3.882287 9.500000 -14.488887
v -1.957891 -5.500000 -14.871674
v -1.957891 9.500000 -14.871674
v 0.000001 -5.500000 -15.000000
v 0.000001 9.500000 -15.000000
v 1.957894 -5.500000 -14.871672
v 1.957894 9.500000 -14.871672
v 3.882286 -5.500000 -14.488887
v 3.882286 9.500000 -14.488887
v 5.740252 -5.500000 -13.858192
v 5.740252 9.500000 -13.858192
v 7.500000 -5.500000 -12.990380
v 7.500000 9.500000 -12.990380
v 9.131420 -5.500000 -11.900301
v 9.131420 9.500000 -11.900301
v 10.606600 -5.500000 -10.606602
v 10.606600 9.500000 -10.606602
v 11.900299 -5.500000 -9.131422
v 11.900299 9.500000 -9.131422
v 12.990381 -5.500000 -7.499998
v 12.990381 9.500000 -7.499998
v 13.858192 -5.500000 -5.740253
v 13.858192 9.500000 -5.740253
v 14.488888 -5.500000 -3.882285
v 14.488888 9.500000 -3.882285
v 14.871672 -5.500000 -1.957896
v 14.871672 9.500000 -1.957896
v 15.000000 -5.500000 0.000000
v 15.000000 9.500000 0.000000
v 14.871672 -5.500000 1.957896
v 14.871672 9.500000 1.957896
v 14.488887 -5.500000 3.882285
v 14.488887 9.500000 3.882285
v 13.858191 -5.500000 5.740254
v 13.858191 9.500000 5.740254
v 12.990381 -5.500000 7.499999
v 12.990381 9.500000 7.499999
v 11.900299 -5.500000 9.131424
v 11.900299 9.500000 9.131424
v 10.606604 -5.500000 10.606600
v 10.606604 9.500000 10.606600
v 9.131420 -5.500000 11.900301
v 9.131420 9.500000 11.900301
v 7.500003 -5.500000 12.990380
v 7.500003 9.500000 12.990380
v 5.740252 -5.500000 13.858192
v 5.740252 9.500000 13.858192
v 3.882283 -5.500000 14.488888
v 3.882283 9.500000 14.488888
v 1.957893 -5.500000 14.871674
v 1.957893 9.500000 14.871674
vt 0.062585 -0.000524
vt 0.165444 -0.000524
vt 0.165443 1.000513
vt 0.062585 1.000513
vt 0.268303 -0.000524
vt 0.268302 1.000513
vt 0.371161 -0.000524
vt 0.371160 1.000514
vt 0.474020 -0.000524
vt 0.474019 1.000514
vt 0.576879 -0.000524
vt 0.576877 1.000514
vt 0.679738 -0.000523
vt 0.679736 1.000515
vt 0.782596 -0.000523
vt 0.782595 1.000515
vt 0.885455 -0.000523
vt 0.885453 1.000515
vt 0.988314 -0.000522
vt 0.988312 1.000515
vt 1.091172 -0.000522
vt 1.091170 1.000516
vt 1.194031 -0.000522
vt 1.194029 1.000516
vt 1.296890 -0.000521
vt 1.296887 1.000516
vt 1.399749 -0.000521
vt 1.399746 1.000517
vt 1.502608 -0.000520
vt 1.502604 1.000518
vt 1.605466 -0.000520
vt 1.605463 1.000518
vt 1.708325 -0.000519
vt 1.708321 1.000519
vt 1.811184 -0.000519
vt 1.811180 1.000519
vt 1.914043 -0.000518
vt 1.914039 1.000520
vt 2.016901 -0.000517
vt 2.016897 1.000521
vt 2.119760 -0.000517
vt 2.119755 1.000521
vt 2.222618 -0.000516
vt 2.222614 1.000522
vt 2.325477 -0.000515
vt 2.325473 1.000523
vt 2.428336 -0.000515
vt 2.428332 1.000523
vt 2.531195 -0.000514
vt 2.531190 1.000525
vt -2.406022 -0.000512
vt -2.303163 -0.000513
vt -2.303157 1.000523
vt -2.406016 1.000525
vt -2.200304 -0.000514
vt -2.200299 1.000523
vt -2.097446 -0.000515
vt -2.097440 1.000522
vt -1.994587 -0.000516
vt -1.994582 1.000521
vt -1.891729 -0.000516
vt -1.891724 1.000520
vt -1.788870 -0.000517
vt -1.788865 1.000519
vt -1.686011 -0.000518
vt -1.686007 1.000519
vt -1.583153 -0.000519
vt -1.583148 1.000518
vt -1.480295 -0.000520
vt -1.480290 1.000517
vt -1.377436 -0.000520
vt -1.377432 1.000516
vt -1.274577 -0.000521
vt -1.274574 1.000516
vt -1.171718 -0.000522
vt -1.171715 1.000515
vt -1.068860 -0.000522
vt -1.068857 1.000515
vt -0.966001 -0.000523
vt -0.965999 1.000514
vt -0.863143 -0.000523
vt -0.863140 1.000514
vt -0.760284 -0.000523
vt -0.760282 1.000514
vt -0.657425 -0.000524
vt -0.657424 1.000513
vt -0.554567 -0.000524
vt -0.554565 1.000513
vt -0.451708 -0.000524
vt -0.451707 1.000513
vt -0.348849 -0.000524
vt -0.348849 1.000513
vt -0.245991 -0.000524
vt -0.245990 1.000513
vt -0.143132 -0.000524
vt -0.143132 1.000513
vt -0.040273 -0.000524
vt -0.040273 1.000513
vn 0.0000 0.0000 -1.0000
vn 0.1305 0.0000 -0.9914
vn 0.2588 0.0000 -0.9659
vn 0.3827 0.0000 -0.9239
vn 0.5000 0.0000 -0.8660
vn 0.6088 0.0000 -0.7933
vn 0.7071 0.0000 -0.7071
vn 0.7933 0.0000 -0.6088
vn 0.8660 0.0000 -0.5000
vn 0.9239 0.0000 -0.3827
vn 0.9659 0.0000 -0.2588
vn 0.9914 0.0000 -0.1305
vn 1.0000 0.0000 0.0000
vn 0.9914 0.0000 0.1305
vn 0.9659 0.0000 0.2588
vn 0.9239 0.0000 0.3827
vn 0.8660 0.0000 0.5000
vn 0.7933 0.0000 0.6088
vn 0.7071 0.0000 0.7071
vn 0.6088 0.0000 0.7933
vn 0.5000 0.0000 0.8660
vn 0.3827 0.0000 0.9239
vn 0.2588 0.0000 0.9659
vn 0.1305 0.0000 0.9914
vn 0.0000 0.0000 1.0000
vn -0.1305 0.0000 0.9914
vn -0.2588 0.0000 0.9659
vn -0.3827 0.0000 0.9239
vn -0.5000 0.0000 0.8660
vn -0.6088 0.0000 0.7933
vn -0.7071 0.0000 0.7071
vn -0.7933 0.0000 0.6088
vn -0.8660 0.0000 0.5000
vn -0.9239 0.0000 0.3827
vn -0.9659 0.0000 0.2588
vn -0.9914 0.0000 0.1305
vn -1.0000 0.0000 0.0000
vn -0.9914 0.0000 -0.1305
vn -0.9659 0.0000 -0.2588
vn -0.9239 0.0000 -0.3827
vn -0.8660 0.0000 -0.5000
vn -0.7933 0.0000 -0.6088
vn -0.7071 0.0000 -0.7071
vn -0.6088 0.0000 -0.7933
vn -0.5000 0.0000 -0.8660
vn -0.3827 0.0000 -0.9239
vn -0.2588 0.0000 -0.9659
vn -0.1305 0.0000 -0.9914
usemtl universal
s 1
f 1/1/1 3/2/2 4/3/2 2/4/1
f 3/2/2 5/5/3 6/6/3 4/3/2
f 5/5/3 7/7/4 8/8/4 6/6/3
f 7/7/4 9/9/5 10/10/5 8/8/4
f 9/9/5 11/11/6 12/12/6 10/10/5
f 11/11/6 13/13/7 14/14/7 12/12/6
f 13/13/7 15/15/8 16/16/8 14/14/7
f 15/15/8 17/17/9 18/18/9 16/16/8
f 17/17/9 19/19/10 20/20/10 18/18/9
f 19/19/10 21/21/11 22/22/11 20/20/10
f 21/21/11 23/23/12 24/24/12 22/22/11
f 23/23/12 25/25/13 26/26/13 24/24/12
f 25/25/13 27/27/14 28/28/14 26/26/13
f 27/27/14 29/29/15 30/30/15 28/28/14
f 29/29/15 31/31/16 32/32/16 30/30/15
f 31/31/16 33/33/17 34/34/17 32/32/16
f 33/33/17 35/35/18 36/36/18 34/34/17
f 35/35/18 37/37/19 38/38/19 36/36/18
f 37/37/19 39/39/20 40/40/20 38/38/19
f 39/39/20 41/41/21 42/42/21 40/40/20
f 41/41/21 43/43/22 44/44/22 42/42/21
f 43/43/22 45/45/23 46/46/23 44/44/22
f 45/45/23 47/47/24 48/48/24 46/46/23
f 47/47/24 49/49/25 50/50/25 48/48/24
f 49/51/25 51/52/26 52/53/26 50/54/25
f 51/52/26 53/55/27 54/56/27 52/53/26
f 53/55/27 55/57/28 56/58/28 54/56/27
f 55/57/28 57/59/29 58/60/29 56/58/28
f 57/59/29 59/61/30 60/62/30 58/60/29
f 59/61/30 61/63/31 62/64/31 60/62/30
f 61/63/31 63/65/32 64/66/32 62/64/31
f 63/65/32 65/67/33 66/68/33 64/66/32
f 65/67/33 67/69/34 68/70/34 66/68/33
f 67/69/34 69/71/35 70/72/35 68/70/34
f 69/71/35 71/73/36 72/74/36 70/72/35
f 71/73/36 73/75/37 74/76/37 72/74/36
f 73/75/37 75/77/38 76/78/38 74/76/37
f 75/77/38 77/79/39 78/80/39 76/78/38
f 77/79/39 79/81/40 80/82/40 78/80/39
f 79/81/40 81/83/41 82/84/41 80/82/40
f 81/83/41 83/85/42 84/86/42 82/84/41
f 83/85/42 85/87/43 86/88/43 84/86/42
f 85/87/43 87/89/44 88/90/44 86/88/43
f 87/89/44 89/91/45 90/92/45 88/90/44
f 89/91/45 91/93/46 92/94/46 90/92/45
f 91/93/46 93/95/47 94/96/47 92/94/46
f 93/95/47 95/97/48 96/98/48 94/96/47
f 95/97/48 1/1/1 2/4/1 96/98/48
