# Blender v2.93.4 OBJ File: 'star.blend'
# www.blender.org
mtllib star.mtl
o Star_mesh_Plane
v -0.241985 0.357578 -0.050000
v -0.149072 0.598194 -0.050000
v 0.000000 0.176340 -0.050000
v 0.241985 0.357578 -0.050000
v 0.000000 0.439611 -0.150000
v 0.149072 0.598194 -0.050000
v -0.279635 0.040070 0.000000
v -0.423772 0.554657 0.000000
v -0.241985 0.357578 0.050000
v -0.149072 0.598194 0.050000
v 0.279635 0.040070 0.000000
v 0.423772 0.554657 0.000000
v 0.000000 0.176340 0.050000
v 0.000000 0.827358 0.000000
v 0.241985 0.357578 0.050000
v 0.000000 0.439611 0.150000
v 0.149072 0.598194 0.050000
v 0.000000 0.442230 -0.188660
v 0.180986 0.638986 0.075830
v 0.293791 0.346859 0.075830
v 0.000000 0.126820 0.075830
v -0.180986 0.638986 0.075830
v -0.293791 0.346859 0.075830
v -0.293791 0.346859 -0.074967
v -0.180986 0.638986 -0.074967
v 0.000000 0.126820 -0.074967
v 0.293791 0.346859 -0.074967
v 0.180986 0.638986 -0.074967
v 0.000000 0.442230 0.189419
v 0.467076 0.593645 0.011354
v 0.481943 0.550839 0.011395
v 0.470064 0.573702 0.014898
v 0.486424 0.585159 0.010964
v 0.491866 0.569491 0.010978
v 0.333847 0.009054 0.011213
v 0.296342 -0.017591 0.011240
v 0.312709 -0.000678 0.014499
v 0.330892 -0.011967 0.010872
v 0.317164 -0.021720 0.010882
v -0.481943 0.550839 0.011395
v -0.467076 0.593645 0.011354
v -0.470064 0.573702 0.014898
v -0.491866 0.569491 0.010978
v -0.486424 0.585159 0.010964
v -0.296342 -0.017591 0.011240
v -0.333847 0.009054 0.011213
v -0.312709 -0.000678 0.014499
v -0.317164 -0.021720 0.010882
v -0.330892 -0.011967 0.010872
v -0.333847 0.009054 -0.010352
v -0.296342 -0.017591 -0.010378
v -0.312711 -0.000679 -0.013640
v -0.330892 -0.011967 -0.010011
v -0.317164 -0.021720 -0.010020
v -0.467076 0.593645 -0.010492
v -0.481943 0.550839 -0.010533
v -0.470066 0.573703 -0.014039
v -0.486424 0.585159 -0.010102
v -0.491866 0.569491 -0.010117
v 0.296342 -0.017591 -0.010378
v 0.333847 0.009054 -0.010352
v 0.312711 -0.000679 -0.013640
v 0.317164 -0.021720 -0.010020
v 0.330892 -0.011967 -0.010011
v 0.481943 0.550839 -0.010533
v 0.467076 0.593645 -0.010492
v 0.470066 0.573703 -0.014039
v 0.491866 0.569491 -0.010117
v 0.486424 0.585159 -0.010102
v 0.026180 0.876966 -0.010511
v -0.026180 0.876966 -0.010511
v 0.000000 0.871539 -0.014564
v 0.009582 0.891697 -0.010108
v -0.009582 0.891697 -0.010108
v -0.026180 0.876966 0.011373
v 0.026180 0.876966 0.011373
v 0.000000 0.871536 0.015423
v -0.009582 0.891697 0.010970
v 0.009582 0.891697 0.010970
vt 0.222884 0.215353
vt 0.235959 0.210867
vt 0.245782 0.221644
vt 0.237994 0.193503
vt 0.222884 0.200955
vt 0.222634 0.262859
vt 0.245532 0.269151
vt 0.230689 0.271532
vt 0.222634 0.284064
vt 0.199986 0.221644
vt 0.209809 0.210867
vt 0.207774 0.193503
vt 0.224717 0.276559
vt 0.216662 0.285231
vt 0.201819 0.282850
vt 0.224717 0.297763
vt 0.222884 0.215353
vt 0.235959 0.210867
vt 0.222884 0.200955
vt 0.222634 0.262859
vt 0.230689 0.271532
vt 0.209809 0.210867
vt 0.224717 0.276559
vt 0.216662 0.285231
vt 0.982817 0.474544
vt 0.994030 0.472745
vt 0.982817 0.474544
vt 0.225133 0.418038
vt 0.231355 0.346299
vt 0.231355 0.346299
vt 0.970648 0.474544
vt 0.970648 0.474544
vt 0.959436 0.472745
vt 0.215246 0.346299
vt 0.215246 0.346299
vt 0.211641 0.258162
vt 0.211641 0.258162
vt 0.209607 0.240799
vt 0.237792 0.258162
vt 0.239826 0.240799
vt 0.237792 0.258162
vt 0.479691 0.462474
vt 0.485103 0.468428
vt 0.493657 0.467056
vt 0.493746 0.466452
vt 0.470907 0.459588
vt 0.465281 0.465760
vt 0.465637 0.466452
vt 0.470341 0.449071
vt 0.469709 0.449365
vt 0.478909 0.475629
vt 0.474280 0.468428
vt 0.474280 0.468428
vt 0.478909 0.475629
vt 0.480474 0.475629
vt 0.480474 0.475629
vt 0.485103 0.468428
vt 0.465726 0.467056
vt 0.494101 0.465760
vt 0.488476 0.459588
vt 0.489673 0.449365
vt 0.489041 0.449071
vt 0.479691 0.475465
vt 0.479691 0.462474
vt 0.479691 0.452929
vt 0.470831 0.448559
vt 0.470907 0.459588
vt 0.469709 0.449365
vt 0.470341 0.449071
vt 0.488476 0.459588
vt 0.489041 0.449071
vt 0.489673 0.449365
vt 0.488552 0.448559
vt 0.479691 0.452929
vt 0.479691 0.475465
vt 0.493746 0.466452
vt 0.493657 0.467056
vt 0.494101 0.465760
vt 0.470831 0.448559
vt 0.465637 0.466452
vt 0.465281 0.465760
vt 0.488552 0.448559
vt 0.465726 0.467056
vt 0.465147 0.466799
vt 0.464985 0.466325
vt 0.469798 0.448729
vt 0.470208 0.448434
vt 0.494398 0.466325
vt 0.494235 0.466799
vt 0.489175 0.448434
vt 0.489585 0.448729
vt 0.489585 0.448729
vt 0.489175 0.448434
vt 0.494235 0.466799
vt 0.494398 0.466325
vt 0.470208 0.448434
vt 0.469798 0.448729
vt 0.464985 0.466325
vt 0.465147 0.466799
vt 0.479405 0.476075
vt 0.479978 0.476075
vt 0.479978 0.476075
vt 0.479405 0.476075
vn -0.3540 -0.0904 -0.9309
vn -0.3491 -0.1052 -0.9311
vn 0.0059 -0.3551 -0.9348
vn -0.2222 0.3620 -0.9053
vn -0.2350 0.3507 -0.9065
vn 0.3540 -0.0904 -0.9309
vn 0.3491 -0.1052 -0.9311
vn -0.0059 -0.3551 -0.9348
vn 0.2222 0.3620 -0.9053
vn 0.2350 0.3507 -0.9065
vn -0.3540 -0.0904 0.9309
vn -0.3491 -0.1052 0.9311
vn 0.0059 -0.3551 0.9348
vn -0.2222 0.3620 0.9053
vn -0.2350 0.3507 0.9065
vn 0.3540 -0.0904 0.9309
vn 0.3491 -0.1052 0.9311
vn -0.0059 -0.3551 0.9348
vn 0.2222 0.3620 0.9053
vn 0.2350 0.3507 0.9065
vn -0.1565 0.9877 0.0000
vn -0.8383 0.5453 0.0000
vn 0.1565 0.9877 0.0000
vn 0.8383 0.5453 0.0000
vn 0.7351 -0.6780 0.0000
vn 0.9930 0.1178 0.0000
vn -0.4381 -0.8989 0.0000
vn 0.4381 -0.8989 0.0000
vn -0.9930 0.1178 0.0000
vn -0.7351 -0.6780 0.0000
vn 0.2591 -0.2863 0.9225
vn -0.3508 0.0211 0.9362
vn -0.3085 0.1490 0.9395
vn -0.8383 -0.5453 0.0000
vn 0.8383 -0.5453 -0.0000
vn -0.2591 -0.2863 0.9225
vn 0.3508 0.0211 0.9362
vn 0.3085 0.1490 0.9395
vn -0.1637 -0.3654 -0.9163
vn -0.0486 0.3337 0.9414
vn -0.3082 0.1490 -0.9396
vn 0.3082 0.1490 -0.9396
vn 0.0487 0.3334 -0.9415
vn -0.1640 -0.3656 0.9162
vn 0.2590 -0.2859 -0.9226
vn 0.3506 0.0209 -0.9363
vn -0.0487 0.3334 -0.9415
vn 0.7351 0.6780 0.0000
vn 0.1640 -0.3656 0.9162
vn -0.3506 0.0209 -0.9363
vn -0.7351 0.6780 0.0000
vn 0.0486 0.3337 0.9414
vn -0.2590 -0.2859 -0.9226
vn -0.9930 -0.1178 0.0000
vn 0.4381 0.8989 0.0000
vn 0.1565 -0.9877 0.0000
vn -0.4381 0.8989 0.0000
vn 0.1637 -0.3654 -0.9163
vn 0.9930 -0.1178 0.0000
vn -0.1026 -0.1889 -0.9766
vn -0.1890 -0.0666 -0.9797
vn -0.1643 0.0654 -0.9842
vn -0.1714 0.0401 -0.9844
vn -0.1050 0.1468 -0.9836
vn 0.0174 0.1729 -0.9848
vn 0.1643 0.0654 -0.9842
vn 0.1890 -0.0666 -0.9797
vn 0.1026 -0.1889 -0.9766
vn -0.0174 0.1729 -0.9848
vn 0.1050 0.1468 -0.9836
vn 0.1714 0.0401 -0.9844
vn 0.1716 0.0401 0.9844
vn 0.1051 0.1470 0.9835
vn -0.0174 0.1731 0.9848
vn 0.1026 -0.1891 0.9766
vn 0.1891 -0.0666 0.9797
vn 0.1644 0.0655 0.9842
vn 0.0174 0.1731 0.9848
vn -0.1051 0.1470 0.9835
vn -0.1716 0.0401 0.9844
vn -0.1644 0.0655 0.9842
vn -0.1891 -0.0666 0.9797
vn -0.1026 -0.1891 0.9766
vn -0.1185 -0.1603 0.9799
vn 0.0000 -0.2158 0.9764
vn 0.1185 -0.1603 0.9799
vn 0.1184 -0.1602 -0.9800
vn 0.0000 -0.2157 -0.9765
vn -0.1184 -0.1602 -0.9800
vn 0.4016 -0.9158 0.0000
vn 0.9446 -0.3281 0.0000
vn 0.8828 0.4697 0.0000
vn 0.6638 -0.7479 -0.0000
vn 0.0000 -1.0000 0.0000
vn -0.6638 -0.7479 -0.0000
vn 0.9903 0.1392 0.0000
vn 0.5792 0.8152 0.0000
vn -0.1945 0.9809 0.0000
vn -0.4016 -0.9158 0.0000
vn -0.9446 -0.3281 0.0000
vn -0.8828 0.4697 0.0000
vn 0.1945 0.9809 0.0000
vn -0.5792 0.8152 0.0000
vn -0.9903 0.1392 0.0000
vn -0.1565 -0.9877 0.0000
usemtl universal
s off
f 5/1/1 1/2/1 8/3/1
f 7/4/2 1/2/2 5/1/2
f 3/5/3 7/4/3 5/1/3
f 5/6/4 8/7/4 2/8/4
f 14/9/5 5/6/5 2/8/5
f 5/1/6 12/10/6 4/11/6
f 11/12/7 5/1/7 4/11/7
f 3/5/8 5/1/8 11/12/8
f 5/13/9 6/14/9 12/15/9
f 14/16/10 6/14/10 5/13/10
f 16/17/11 8/3/11 9/18/11
f 7/4/12 16/17/12 9/18/12
f 13/19/13 16/17/13 7/4/13
f 16/20/14 10/21/14 8/7/14
f 14/9/15 10/21/15 16/20/15
f 16/17/16 15/22/16 12/10/16
f 11/12/17 15/22/17 16/17/17
f 13/19/18 11/12/18 16/17/18
f 16/23/19 12/15/19 17/24/19
f 14/16/20 16/23/20 17/24/20
f 2/25/21 8/26/21 10/27/21
f 14/28/22 2/29/22 10/30/22
f 6/31/23 17/32/23 12/33/23
f 14/28/24 17/34/24 6/35/24
f 12/10/25 15/22/25 4/11/25
f 4/36/26 15/37/26 11/38/26
f 11/12/27 13/19/27 3/5/27
f 7/4/28 3/5/28 13/19/28
f 1/39/29 7/40/29 9/41/29
f 8/3/30 1/2/30 9/18/30
f 18/42/31 25/43/31 55/44/31 57/45/31
f 18/42/32 27/46/32 65/47/32 67/48/32
f 18/42/33 62/49/33 61/50/33 27/46/33
f 70/51/34 28/52/34 19/53/34 76/54/34
f 71/55/35 75/56/35 22/57/35 25/43/35
f 18/42/36 67/48/36 66/58/36 28/52/36
f 18/42/37 57/45/37 56/59/37 24/60/37
f 18/42/38 24/60/38 50/61/38 52/62/38
f 77/63/39 76/54/39 19/53/39 29/64/39
f 18/42/40 26/65/40 60/66/40 62/49/40
f 20/67/41 35/68/41 37/69/41 29/64/41
f 23/70/42 29/64/42 47/71/42 46/72/42
f 45/73/43 47/71/43 29/64/43 21/74/43
f 18/42/44 28/52/44 70/51/44 72/75/44
f 22/57/45 29/64/45 42/76/45 41/77/45
f 40/78/46 42/76/46 29/64/46 23/70/46
f 37/69/47 36/79/47 21/74/47 29/64/47
f 56/59/48 40/78/48 23/70/48 24/60/48
f 18/42/49 72/75/49 71/55/49 25/43/49
f 32/80/50 31/81/50 20/67/50 29/64/50
f 65/47/51 27/46/51 20/67/51 31/81/51
f 18/42/52 52/62/52 51/82/52 26/65/52
f 19/53/53 30/83/53 32/80/53 29/64/53
f 27/46/54 61/50/54 35/68/54 20/67/54
f 60/66/55 26/65/55 21/74/55 36/79/55
f 25/43/56 22/57/56 41/77/56 55/44/56
f 51/82/57 45/73/57 21/74/57 26/65/57
f 75/56/58 77/63/58 29/64/58 22/57/58
f 24/60/59 23/70/59 46/72/59 50/61/59
f 30/83/60 33/84/60 32/80/60
f 33/84/61 34/85/61 32/80/61
f 34/85/62 31/81/62 32/80/62
f 35/68/63 38/86/63 37/69/63
f 38/86/64 39/87/64 37/69/64
f 39/87/65 36/79/65 37/69/65
f 40/78/66 43/88/66 42/76/66
f 43/88/67 44/89/67 42/76/67
f 44/89/68 41/77/68 42/76/68
f 45/73/69 48/90/69 47/71/69
f 48/90/70 49/91/70 47/71/70
f 49/91/71 46/72/71 47/71/71
f 50/61/72 53/92/72 52/62/72
f 53/92/73 54/93/73 52/62/73
f 54/93/74 51/82/74 52/62/74
f 55/44/75 58/94/75 57/45/75
f 58/94/76 59/95/76 57/45/76
f 59/95/77 56/59/77 57/45/77
f 60/66/78 63/96/78 62/49/78
f 63/96/79 64/97/79 62/49/79
f 64/97/80 61/50/80 62/49/80
f 65/47/81 68/98/81 67/48/81
f 68/98/82 69/99/82 67/48/82
f 69/99/83 66/58/83 67/48/83
f 70/51/84 73/100/84 72/75/84
f 73/100/85 74/101/85 72/75/85
f 74/101/86 71/55/86 72/75/86
f 75/56/87 78/102/87 77/63/87
f 78/102/88 79/103/88 77/63/88
f 79/103/89 76/54/89 77/63/89
f 55/44/90 41/77/90 44/89/90 58/94/90
f 58/94/91 44/89/91 43/88/91 59/95/91
f 59/95/92 43/88/92 40/78/92 56/59/92
f 75/56/93 71/55/93 74/101/93 78/102/93
f 78/102/94 74/101/94 73/100/94 79/103/94
f 79/103/95 73/100/95 70/51/95 76/54/95
f 50/61/96 46/72/96 49/91/96 53/92/96
f 53/92/97 49/91/97 48/90/97 54/93/97
f 54/93/98 48/90/98 45/73/98 51/82/98
f 30/83/99 66/58/99 69/99/99 33/84/99
f 33/84/100 69/99/100 68/98/100 34/85/100
f 34/85/101 68/98/101 65/47/101 31/81/101
f 60/66/102 36/79/102 39/87/102 63/96/102
f 63/96/103 39/87/103 38/86/103 64/97/103
f 64/97/104 38/86/104 35/68/104 61/50/104
f 28/52/105 66/58/105 30/83/105 19/53/105
